<svg xmlns="http://www.w3.org/2000/svg" width="794" height="662" viewBox="0 0 794 662" shape-rendering="geometricPrecision">
<g fill-rule="evenodd">
<path d="M 277 581 L 278 582 L 277 585 L 282 584 L 279 580 Z M 464 593 L 464 597 L 466 599 L 471 601 L 476 600 L 477 601 L 476 602 L 482 601 L 483 602 L 481 603 L 511 602 L 512 600 L 515 601 L 521 597 L 520 595 L 522 594 L 524 580 L 518 581 L 519 582 L 518 583 L 514 582 L 495 583 L 473 576 L 471 579 L 477 578 L 480 580 L 483 579 L 486 582 L 501 584 L 523 582 L 524 583 L 522 586 L 523 591 L 515 601 L 512 599 L 507 601 L 486 602 L 476 599 L 469 599 L 465 596 L 465 594 L 468 589 L 467 586 L 470 585 L 471 581 L 469 582 Z M 470 600 L 471 599 L 473 600 L 472 601 Z M 467 599 L 468 598 L 469 599 L 468 600 Z M 465 598 L 466 597 L 467 598 L 466 599 Z M 519 597 L 520 596 L 521 597 L 520 598 Z M 464 597 L 465 596 L 466 597 L 465 598 Z M 464 593 L 465 592 L 466 593 L 465 594 Z M 466 588 L 467 587 L 468 588 L 467 589 Z M 468 584 L 469 583 L 470 584 L 469 585 Z M 502 583 L 503 582 L 505 583 L 504 584 Z M 522 581 L 523 580 L 524 581 L 523 582 Z M 486 581 L 487 580 L 488 581 L 487 582 Z M 479 579 L 480 578 L 481 579 L 480 580 Z M 474 577 L 475 576 L 476 577 L 475 578 Z M 439 576 L 435 580 L 431 582 L 428 582 L 428 583 L 432 583 L 431 582 L 432 581 L 434 582 L 438 578 L 437 577 Z M 396 577 L 400 580 L 402 579 L 405 582 L 409 583 L 413 582 L 416 584 L 424 584 L 416 584 L 409 581 L 405 582 L 398 576 L 397 578 Z M 408 582 L 409 581 L 410 582 L 409 583 Z M 399 579 L 400 578 L 401 579 L 400 580 Z M 267 592 L 268 594 L 274 597 L 283 597 L 284 598 L 282 599 L 310 599 L 307 598 L 315 598 L 317 595 L 319 595 L 326 581 L 324 580 L 325 579 L 305 581 L 304 579 L 286 576 L 284 578 L 287 578 L 289 580 L 291 579 L 293 581 L 301 580 L 326 582 L 323 583 L 323 586 L 320 590 L 321 592 L 318 593 L 316 596 L 305 597 L 300 600 L 292 600 L 291 597 L 278 597 L 275 595 L 271 595 L 267 591 L 269 588 L 272 593 L 274 592 L 270 590 L 272 588 L 272 583 L 277 574 L 280 578 L 282 578 L 281 577 L 284 575 L 280 575 L 277 572 L 272 580 L 273 581 L 270 583 Z M 314 597 L 315 596 L 316 597 L 315 598 Z M 317 595 L 318 594 L 319 595 L 318 596 Z M 320 590 L 321 589 L 322 590 L 321 591 Z M 321 588 L 322 587 L 323 588 L 322 589 Z M 269 587 L 270 586 L 272 588 L 270 589 Z M 270 583 L 271 582 L 272 583 L 271 584 Z M 302 580 L 303 579 L 304 580 L 303 581 Z M 272 580 L 273 579 L 274 580 L 273 581 Z M 296 579 L 297 578 L 298 579 L 297 580 Z M 288 579 L 289 578 L 290 579 L 289 580 Z M 273 578 L 274 577 L 275 578 L 274 579 Z M 285 577 L 286 576 L 289 577 L 288 578 Z M 280 575 L 281 574 L 283 575 L 282 576 Z M 276 573 L 277 572 L 279 573 L 278 574 Z M 427 558 L 431 559 L 444 558 L 440 559 Z M 395 575 L 398 569 L 402 565 L 403 561 L 404 563 L 405 562 L 407 564 L 407 566 L 410 566 L 414 568 L 413 567 L 415 566 L 408 565 L 406 563 L 410 560 L 411 563 L 418 564 L 422 566 L 420 567 L 422 566 L 441 566 L 442 568 L 440 573 L 439 572 L 440 574 L 444 566 L 443 565 L 419 564 L 410 560 L 409 561 L 406 558 L 397 569 Z M 442 566 L 443 565 L 444 566 L 443 567 Z M 399 566 L 400 565 L 401 566 L 400 567 Z M 400 565 L 401 564 L 402 565 L 401 566 Z M 414 563 L 415 562 L 416 563 L 415 564 Z M 407 561 L 408 560 L 409 561 L 408 562 Z M 403 561 L 404 560 L 405 561 L 404 562 Z M 407 558 L 408 559 L 406 562 L 404 560 Z M 283 543 L 279 550 L 275 549 L 279 550 Z M 671 520 L 668 523 L 657 527 L 662 526 L 668 523 Z M 647 512 L 656 515 L 656 514 L 652 514 Z M 680 510 L 671 514 L 667 514 L 671 514 L 677 511 L 678 513 L 673 519 Z M 264 501 L 260 505 L 257 505 L 254 509 L 249 511 L 249 513 L 252 512 L 254 509 L 255 510 L 258 508 L 257 507 L 259 505 L 261 506 L 264 503 L 263 502 Z M 249 512 L 250 511 L 251 512 L 250 513 Z M 251 511 L 252 510 L 253 511 L 252 512 Z M 255 508 L 256 507 L 258 508 L 257 509 Z M 262 503 L 263 502 L 264 503 L 263 504 Z M 684 495 L 676 503 L 669 506 L 671 507 L 674 504 L 675 505 L 677 502 L 678 503 Z M 225 496 L 237 511 L 238 510 L 241 514 L 247 514 L 247 513 L 241 513 L 239 510 L 236 509 L 234 507 L 234 505 L 233 504 L 232 505 L 230 503 L 231 501 L 227 499 L 227 495 Z M 247 489 L 246 488 L 245 490 L 244 489 L 241 490 L 238 493 L 237 492 L 233 493 L 232 495 L 229 494 L 230 496 L 234 494 L 240 496 L 241 495 L 240 496 L 236 494 Z M 235 493 L 236 492 L 237 493 L 236 494 Z M 240 491 L 241 490 L 242 491 L 241 492 Z M 685 487 L 681 491 L 680 490 L 677 492 L 672 493 L 672 494 L 676 494 L 683 489 L 685 493 Z M 674 493 L 675 492 L 676 493 L 675 494 Z M 651 487 L 658 493 L 659 492 L 660 494 L 662 494 L 662 493 L 655 491 Z M 635 487 L 638 496 L 641 498 L 640 499 L 644 503 L 645 502 L 647 505 L 649 506 L 651 505 L 652 507 L 655 508 L 660 507 L 655 507 L 652 505 L 649 505 L 643 501 L 638 494 L 636 487 Z M 638 496 L 639 495 L 640 496 L 639 497 Z M 606 487 L 606 492 L 609 501 L 609 498 L 607 496 Z M 628 483 L 629 493 L 634 501 L 634 503 L 645 511 L 641 509 L 632 499 L 629 493 Z M 647 478 L 647 480 L 649 481 L 648 483 L 651 485 Z M 264 474 L 259 480 L 248 487 L 249 488 L 251 486 L 253 486 L 257 481 L 258 482 L 261 479 L 262 480 L 261 479 L 262 478 L 264 479 L 268 478 L 269 480 L 271 481 L 272 480 L 275 483 L 275 488 L 269 497 L 268 496 L 266 502 L 267 501 L 266 500 L 268 498 L 269 499 L 268 498 L 274 493 L 276 489 L 276 484 L 266 474 L 265 475 Z M 270 495 L 271 494 L 272 495 L 271 496 Z M 272 493 L 273 492 L 274 493 L 273 494 Z M 273 491 L 274 490 L 275 491 L 274 492 Z M 274 489 L 275 488 L 276 489 L 275 490 Z M 253 484 L 254 483 L 255 484 L 254 485 Z M 257 481 L 258 480 L 259 481 L 258 482 Z M 270 480 L 271 479 L 272 480 L 271 481 Z M 269 479 L 270 478 L 271 479 L 270 480 Z M 268 478 L 269 477 L 270 478 L 269 479 Z M 267 477 L 268 476 L 269 477 L 268 478 Z M 264 477 L 265 476 L 267 477 L 266 478 Z M 266 476 L 267 475 L 268 476 L 267 477 Z M 265 475 L 266 474 L 267 475 L 266 476 Z M 263 475 L 264 474 L 265 475 L 264 476 Z M 635 470 L 636 474 L 634 475 L 634 484 L 636 485 L 635 482 L 636 470 Z M 646 464 L 645 474 L 647 476 L 647 472 L 645 471 L 646 468 L 647 470 L 647 464 Z M 630 463 L 628 471 L 628 478 L 628 471 Z M 639 457 L 640 459 L 637 462 L 638 465 L 636 466 L 637 468 L 638 462 L 640 460 Z M 644 448 L 643 448 L 640 455 L 642 454 Z M 613 448 L 607 465 L 606 475 L 607 465 L 609 462 L 609 458 Z M 210 443 L 209 446 L 210 458 L 209 455 Z M 202 442 L 201 445 L 202 458 L 201 455 Z M 661 435 L 659 435 L 659 437 L 655 442 L 655 444 L 651 448 L 647 458 L 647 461 L 648 461 L 648 458 L 651 452 L 650 451 L 653 449 L 652 448 L 654 447 L 653 446 L 656 444 L 657 442 L 656 441 L 658 440 Z M 621 423 L 620 430 L 614 446 L 615 446 L 615 442 L 617 440 L 617 437 L 619 434 Z M 669 418 L 667 419 L 666 424 L 663 429 L 665 428 L 667 423 L 666 422 L 668 421 Z M 663 428 L 664 427 L 665 428 L 664 429 Z M 672 408 L 671 408 L 669 416 L 670 416 L 669 414 L 671 413 Z M 657 407 L 658 413 L 657 414 L 656 413 L 657 416 L 654 421 L 653 425 L 654 427 L 652 428 L 650 433 L 651 434 L 649 435 L 647 440 L 648 440 L 652 432 L 656 421 L 656 418 L 658 414 L 658 408 Z M 654 421 L 655 420 L 656 421 L 655 422 Z M 673 395 L 673 401 L 674 402 Z M 658 391 L 659 392 L 658 395 L 658 401 L 659 402 L 659 392 Z M 464 407 L 463 409 L 464 412 L 476 421 L 475 425 L 475 436 L 476 437 L 482 436 L 491 429 L 503 434 L 508 433 L 508 428 L 504 418 L 514 406 L 513 402 L 511 401 L 497 401 L 490 389 L 486 388 L 483 392 L 481 401 L 479 403 Z M 464 408 L 466 406 L 480 404 L 480 402 L 481 401 L 482 402 L 481 399 L 483 396 L 484 391 L 488 388 L 491 391 L 496 401 L 506 401 L 507 402 L 512 402 L 514 404 L 513 405 L 514 406 L 509 411 L 508 410 L 509 412 L 504 417 L 508 429 L 508 433 L 504 434 L 500 432 L 501 431 L 499 432 L 496 430 L 490 429 L 480 437 L 477 437 L 475 435 L 476 420 L 469 415 L 468 413 L 467 414 L 464 411 Z M 542 383 L 558 390 L 568 401 L 567 403 L 569 408 L 569 419 L 561 442 L 561 448 L 559 449 L 557 478 L 561 492 L 567 502 L 579 514 L 583 516 L 575 502 L 571 488 L 571 467 L 583 427 L 583 409 L 578 398 L 568 388 L 555 383 Z M 581 515 L 582 514 L 583 515 L 582 516 Z M 580 514 L 581 513 L 582 514 L 581 515 Z M 558 483 L 559 482 L 560 483 L 559 484 Z M 559 452 L 560 453 L 559 456 L 558 455 Z M 565 431 L 566 430 L 567 431 L 566 432 Z M 566 428 L 567 427 L 568 428 L 567 429 Z M 581 410 L 582 409 L 583 410 L 582 411 Z M 375 382 L 373 384 L 373 388 L 374 387 L 373 384 Z M 648 377 L 651 390 L 651 408 L 649 418 L 644 431 L 649 418 L 651 408 L 651 390 Z M 612 377 L 619 389 L 621 398 L 619 388 L 617 386 L 615 380 Z M 674 376 L 673 376 L 673 390 Z M 656 376 L 655 377 L 657 380 L 656 383 L 658 384 L 657 389 L 658 388 L 658 383 L 656 379 Z M 381 371 L 378 373 L 375 380 L 376 380 L 375 379 L 377 378 L 376 377 L 379 374 L 378 373 Z M 343 371 L 344 376 L 348 384 L 353 391 L 357 394 L 354 386 L 354 380 L 354 386 L 356 391 L 355 392 L 353 391 L 347 382 Z M 653 368 L 652 370 L 654 375 L 655 373 Z M 652 370 L 653 369 L 654 370 L 653 371 Z M 356 361 L 354 364 L 354 372 L 354 367 Z M 537 367 L 524 378 L 526 381 L 542 376 L 565 379 L 581 391 L 589 405 L 590 427 L 577 471 L 578 489 L 585 507 L 601 523 L 617 530 L 632 532 L 618 524 L 610 516 L 599 492 L 600 465 L 614 427 L 616 415 L 615 400 L 609 384 L 595 369 L 578 361 L 558 360 Z M 602 523 L 603 522 L 604 523 L 603 524 Z M 536 368 L 553 361 L 577 361 L 592 367 L 608 383 L 615 400 L 615 422 L 603 457 L 600 459 L 599 492 L 608 514 L 627 531 L 606 525 L 608 524 L 605 525 L 605 523 L 596 519 L 584 505 L 583 498 L 579 493 L 578 466 L 589 432 L 591 418 L 590 408 L 582 393 L 583 391 L 571 382 L 555 376 L 542 376 L 527 381 L 525 377 Z M 198 357 L 194 370 L 189 374 L 181 376 L 180 379 L 190 381 L 196 388 L 197 392 L 196 394 L 193 394 L 197 394 L 198 397 L 200 397 L 203 386 L 208 381 L 217 379 L 218 377 L 215 375 L 209 374 L 203 368 L 201 358 Z M 199 358 L 200 362 L 202 363 L 201 366 L 203 367 L 202 368 L 203 370 L 212 376 L 215 375 L 217 378 L 216 379 L 215 378 L 213 380 L 210 379 L 205 382 L 201 389 L 200 394 L 198 395 L 197 394 L 198 391 L 196 389 L 194 383 L 186 379 L 184 380 L 181 377 L 184 375 L 187 376 L 188 374 L 189 375 L 194 372 L 194 369 L 196 367 L 195 366 L 197 364 L 197 361 Z M 667 356 L 671 367 L 672 374 L 673 374 L 673 371 L 671 370 L 672 367 L 670 366 L 671 364 L 669 363 L 670 361 L 668 356 Z M 556 354 L 551 355 L 550 354 L 547 356 L 541 357 L 526 366 L 520 372 L 519 370 L 521 367 L 518 372 L 520 373 L 528 365 L 542 357 L 552 354 Z M 367 354 L 362 363 L 363 365 L 361 366 L 362 369 L 360 370 L 361 375 L 360 376 L 361 377 L 360 384 L 361 383 L 362 384 L 361 387 L 363 389 L 362 390 L 364 395 L 367 397 L 366 398 L 372 404 L 375 405 L 374 398 L 373 399 L 374 402 L 372 403 L 365 395 L 361 383 L 362 366 L 364 360 L 368 354 Z M 520 349 L 518 350 L 516 354 L 517 356 L 515 357 L 516 359 L 514 360 L 516 362 L 513 363 L 512 368 L 514 367 L 513 366 L 515 365 L 514 364 L 517 362 L 516 361 L 519 359 L 517 360 L 516 357 L 518 352 L 520 351 Z M 515 360 L 516 359 L 517 360 L 516 361 Z M 623 342 L 635 353 L 636 356 L 640 360 L 640 362 L 642 363 L 646 372 L 642 363 L 635 353 Z M 545 342 L 538 347 L 527 358 L 522 365 L 523 365 L 523 363 L 538 347 Z M 534 341 L 525 349 L 519 357 L 523 354 L 522 353 Z M 521 354 L 522 353 L 523 354 L 522 355 Z M 343 339 L 341 347 L 342 369 L 341 347 L 343 343 Z M 655 337 L 660 343 L 665 353 L 667 354 L 665 353 L 666 352 L 664 351 L 665 350 L 663 346 L 660 344 L 661 343 Z M 626 335 L 628 338 L 629 337 L 643 351 L 642 352 L 646 355 L 645 356 L 649 360 L 648 361 L 650 363 L 649 360 L 646 358 L 647 357 L 645 353 Z M 599 332 L 608 334 L 621 341 L 613 336 L 602 332 Z M 570 332 L 567 332 L 554 337 L 567 332 L 568 333 Z M 550 331 L 541 336 L 540 338 L 545 335 L 547 332 L 548 333 Z M 572 331 L 577 331 L 578 330 L 597 331 L 592 331 L 591 330 Z M 447 329 L 439 334 L 433 336 L 432 338 L 430 337 L 425 340 L 420 341 L 397 353 L 381 369 L 384 367 L 383 366 L 389 360 L 392 359 L 399 352 L 400 353 L 402 351 L 422 342 L 423 340 L 425 341 L 428 338 L 429 339 L 430 337 L 432 338 L 436 336 L 437 334 L 438 335 L 441 332 L 442 333 L 446 331 Z M 557 328 L 552 329 L 552 331 L 557 329 Z M 609 327 L 609 328 L 615 330 L 616 329 L 619 332 L 620 331 L 624 335 L 621 331 L 619 331 L 612 327 Z M 572 325 L 568 324 L 564 325 L 562 327 L 567 326 L 568 324 Z M 405 324 L 401 326 L 399 329 L 398 328 L 397 330 L 396 329 L 389 333 L 387 336 L 386 335 L 383 337 L 368 352 L 371 350 L 370 349 L 383 338 L 401 328 Z M 575 324 L 581 324 L 582 323 L 594 324 L 597 323 L 598 324 L 597 325 L 601 324 L 602 326 L 604 326 L 602 324 L 597 323 L 576 323 Z M 519 321 L 529 323 L 525 328 L 532 321 L 529 323 Z M 621 312 L 622 314 L 625 314 L 627 316 L 635 319 L 640 324 L 642 324 L 646 328 L 648 328 L 649 329 L 648 330 L 653 336 L 654 335 L 642 323 L 641 324 L 636 319 Z M 651 333 L 652 332 L 653 333 L 652 334 Z M 621 313 L 622 312 L 623 313 L 622 314 Z M 563 311 L 559 312 L 556 315 L 555 314 L 554 316 L 553 315 L 552 317 L 551 316 L 543 321 L 539 326 L 538 325 L 529 334 L 530 335 L 523 342 L 543 322 Z M 574 308 L 572 308 L 571 310 L 570 309 L 568 309 L 568 310 L 571 310 Z M 597 308 L 604 308 L 619 312 L 619 311 L 617 312 L 616 310 L 614 311 L 609 308 L 605 309 L 602 307 Z M 608 309 L 609 308 L 610 309 L 609 310 Z M 576 308 L 588 308 L 582 308 L 581 307 Z M 157 302 L 151 319 L 148 322 L 134 328 L 134 330 L 148 334 L 154 342 L 156 351 L 159 352 L 164 337 L 167 334 L 180 330 L 181 327 L 168 323 L 164 319 L 161 312 L 160 304 L 159 302 Z M 134 329 L 135 328 L 136 329 L 135 330 Z M 157 302 L 159 303 L 161 313 L 165 322 L 172 324 L 173 325 L 172 326 L 174 325 L 181 328 L 180 330 L 169 333 L 165 335 L 164 337 L 163 336 L 164 337 L 162 340 L 161 347 L 158 352 L 153 340 L 154 339 L 152 338 L 152 336 L 149 333 L 148 334 L 135 330 L 137 327 L 141 325 L 143 326 L 144 324 L 151 320 L 155 310 L 156 312 L 155 307 Z M 479 294 L 478 294 L 474 303 L 466 314 L 455 324 L 451 326 L 449 329 L 455 325 L 459 320 L 460 321 L 467 314 L 475 303 L 474 302 L 476 301 L 475 300 L 477 299 L 476 298 L 478 297 Z M 383 291 L 371 300 L 356 315 L 349 325 L 344 337 L 349 325 L 353 321 L 353 319 L 356 315 L 371 300 L 382 293 Z M 444 281 L 436 293 L 425 304 L 418 309 L 425 304 L 437 292 Z M 483 279 L 479 292 L 481 290 L 482 286 L 481 283 L 483 282 Z M 491 270 L 490 283 L 486 297 L 474 317 L 463 328 L 450 337 L 406 357 L 396 364 L 386 375 L 381 385 L 380 397 L 383 405 L 388 410 L 398 414 L 413 414 L 419 412 L 410 407 L 405 399 L 406 389 L 412 379 L 432 366 L 469 351 L 486 334 L 495 309 L 495 287 Z M 389 372 L 390 371 L 391 372 L 390 373 Z M 475 344 L 476 343 L 477 344 L 476 345 Z M 492 276 L 495 287 L 495 307 L 491 323 L 485 335 L 482 336 L 483 338 L 465 353 L 431 366 L 420 372 L 411 380 L 405 392 L 405 399 L 408 405 L 416 412 L 399 414 L 386 408 L 380 397 L 382 382 L 387 374 L 391 372 L 390 371 L 395 365 L 402 360 L 403 361 L 402 360 L 406 357 L 439 343 L 457 332 L 459 333 L 458 332 L 472 320 L 481 308 L 487 295 L 490 277 Z M 418 260 L 407 273 L 385 290 L 407 273 L 415 265 Z M 358 264 L 355 260 L 345 256 L 335 257 L 325 263 L 322 267 L 321 270 L 322 278 L 326 282 L 334 285 L 341 285 L 348 283 L 356 277 L 359 270 Z M 357 269 L 358 268 L 359 269 L 358 270 Z M 321 272 L 323 266 L 328 261 L 336 257 L 351 258 L 358 265 L 357 275 L 349 282 L 339 285 L 331 284 L 325 281 L 322 277 Z M 320 251 L 318 252 L 309 252 L 318 252 Z M 479 242 L 480 245 L 479 247 L 481 248 L 481 253 L 483 258 L 483 277 L 484 275 L 484 261 L 482 257 L 483 253 L 481 252 L 482 248 L 480 247 L 481 245 L 479 244 L 480 243 Z M 459 241 L 458 243 L 458 256 L 459 259 L 457 260 L 457 265 L 456 266 L 457 269 L 455 270 L 454 273 L 455 275 L 453 276 L 453 278 L 446 290 L 447 291 L 443 294 L 444 295 L 428 310 L 424 312 L 421 316 L 420 315 L 418 318 L 417 317 L 415 318 L 413 321 L 412 320 L 407 324 L 412 322 L 424 314 L 425 312 L 428 311 L 442 298 L 447 291 L 454 278 L 455 272 L 457 270 L 458 266 Z M 414 319 L 415 318 L 416 319 L 415 320 Z M 436 302 L 437 301 L 438 302 L 437 303 Z M 451 240 L 450 241 L 451 242 L 451 257 L 450 260 L 451 260 Z M 428 233 L 428 237 L 424 249 L 425 249 Z M 550 232 L 555 233 L 554 237 L 552 238 L 553 241 L 551 247 L 547 251 L 538 254 L 535 257 L 547 261 L 553 269 L 555 278 L 557 278 L 560 267 L 563 263 L 567 260 L 576 258 L 577 255 L 565 251 L 560 245 L 557 232 Z M 575 256 L 576 255 L 577 256 L 576 257 Z M 556 233 L 557 234 L 556 236 L 557 235 L 558 236 L 559 244 L 562 250 L 564 252 L 565 251 L 575 255 L 574 258 L 570 257 L 571 258 L 568 260 L 567 259 L 561 264 L 557 278 L 554 275 L 553 271 L 554 268 L 553 269 L 551 265 L 552 264 L 544 259 L 536 257 L 537 255 L 542 254 L 551 249 L 554 239 L 554 235 Z M 476 232 L 475 234 L 478 236 L 477 238 L 478 236 Z M 454 225 L 457 239 L 458 239 L 456 228 L 454 227 L 455 226 Z M 260 206 L 255 208 L 251 208 L 249 210 L 238 211 L 249 210 Z M 422 195 L 426 206 L 425 200 Z M 442 191 L 441 192 L 449 198 L 463 213 L 468 221 L 471 223 L 474 231 L 475 230 L 467 217 L 464 215 L 465 214 Z M 458 208 L 459 207 L 460 208 L 459 209 Z M 524 187 L 522 188 L 522 191 L 518 201 L 514 205 L 507 208 L 504 208 L 504 210 L 517 215 L 520 219 L 522 228 L 525 231 L 528 219 L 533 214 L 543 211 L 544 209 L 532 204 L 529 201 L 526 190 L 525 190 L 528 201 L 533 206 L 543 209 L 540 212 L 538 211 L 532 213 L 527 220 L 528 221 L 525 226 L 526 229 L 524 230 L 523 226 L 521 224 L 522 221 L 519 216 L 514 212 L 511 211 L 508 212 L 505 209 L 511 206 L 514 206 L 519 202 L 519 199 L 522 196 L 522 189 L 525 188 Z M 407 185 L 405 185 L 397 192 L 404 210 L 405 220 L 406 221 L 405 249 L 403 258 L 398 271 L 409 261 L 414 254 L 419 244 L 422 232 L 422 218 L 420 208 L 413 192 Z M 398 270 L 399 269 L 400 270 L 399 271 Z M 407 185 L 414 194 L 419 205 L 422 219 L 422 232 L 418 246 L 415 250 L 415 252 L 408 261 L 407 260 L 408 261 L 401 268 L 400 265 L 403 259 L 406 245 L 406 219 L 402 203 L 398 194 L 398 191 L 405 185 Z M 288 185 L 279 194 L 266 203 L 278 195 Z M 187 183 L 188 188 L 193 196 L 197 200 L 207 206 L 197 200 L 193 196 L 189 190 L 189 187 L 187 185 Z M 237 180 L 228 182 L 220 182 L 228 182 Z M 424 179 L 423 180 L 439 195 L 438 196 L 444 202 L 443 203 L 447 207 L 446 208 L 449 214 L 451 215 L 450 216 L 453 219 L 452 221 L 454 223 L 454 221 L 446 205 L 432 187 L 433 185 L 432 184 L 431 185 L 427 181 L 426 182 Z M 430 186 L 431 185 L 433 186 L 432 187 Z M 411 179 L 415 182 L 415 184 L 417 186 L 418 184 L 421 187 L 415 181 Z M 245 168 L 239 172 L 226 175 L 233 175 L 236 174 L 237 172 L 239 173 L 243 169 L 244 170 Z M 232 174 L 233 173 L 234 174 L 233 175 Z M 195 167 L 204 177 L 210 179 L 202 175 Z M 215 161 L 214 163 L 216 164 L 215 166 L 218 168 L 217 169 L 224 174 L 225 173 L 220 171 L 215 166 L 216 165 Z M 328 155 L 318 157 L 311 161 L 318 157 Z M 214 152 L 215 154 L 221 157 L 221 156 L 217 155 Z M 191 152 L 189 153 L 187 159 L 187 157 L 190 153 L 191 155 Z M 254 145 L 256 151 L 260 154 L 261 153 L 260 154 L 257 152 Z M 254 161 L 254 159 L 251 157 L 252 156 L 246 147 L 247 146 L 246 143 L 242 148 L 242 150 L 238 154 L 237 153 L 232 156 L 231 158 L 230 157 L 223 157 L 223 158 L 231 158 L 236 156 L 245 146 L 248 150 L 249 155 L 253 159 L 252 162 L 247 168 Z M 393 140 L 388 142 L 386 145 L 385 144 L 374 157 L 375 158 L 373 159 L 374 160 L 371 163 L 372 165 L 370 166 L 371 168 L 369 170 L 370 174 L 369 175 L 374 175 L 373 174 L 374 173 L 377 174 L 382 172 L 388 166 L 389 167 L 389 165 L 393 162 L 392 161 L 395 159 L 397 155 L 396 153 L 398 152 L 399 149 L 398 145 L 399 149 L 397 150 L 397 152 L 390 164 L 382 171 L 373 174 L 370 173 L 370 169 L 376 155 L 384 146 L 390 142 L 393 142 Z M 395 155 L 396 154 L 397 155 L 396 156 Z M 384 145 L 385 144 L 386 145 L 385 146 Z M 282 139 L 269 152 L 262 161 L 267 156 L 269 152 Z M 395 139 L 395 140 L 398 139 L 399 143 L 400 143 L 399 138 Z M 404 133 L 405 135 L 404 146 L 405 144 L 405 135 Z M 255 131 L 253 132 L 253 143 L 253 133 Z M 330 130 L 338 132 L 342 135 L 348 137 L 354 142 L 352 146 L 354 142 L 348 137 L 338 132 Z M 301 130 L 296 131 L 287 136 L 296 131 Z M 486 126 L 485 131 L 482 132 L 484 135 L 483 136 L 479 135 L 483 136 L 481 142 L 478 145 L 472 148 L 466 149 L 464 152 L 466 154 L 470 154 L 479 158 L 478 159 L 475 159 L 480 159 L 483 164 L 483 167 L 485 169 L 486 175 L 489 175 L 494 160 L 501 155 L 511 152 L 511 150 L 497 145 L 492 138 L 490 127 Z M 488 126 L 490 129 L 490 133 L 494 143 L 499 147 L 510 150 L 508 153 L 501 154 L 494 159 L 489 174 L 486 173 L 483 162 L 479 157 L 473 154 L 468 154 L 465 152 L 467 149 L 471 149 L 476 147 L 481 143 L 483 140 L 485 129 Z M 331 123 L 331 124 L 334 123 L 335 125 L 343 128 L 344 127 L 345 129 L 344 127 L 340 125 L 337 125 L 335 123 Z M 300 123 L 292 125 L 291 127 L 292 125 L 294 126 L 295 124 L 297 125 L 298 123 L 299 124 Z M 245 122 L 250 126 L 258 122 L 251 126 Z M 303 122 L 303 123 L 306 123 L 307 122 L 321 122 L 322 121 L 323 122 L 324 121 L 325 123 L 328 123 L 326 121 L 307 121 L 306 123 Z M 321 113 L 325 116 L 326 115 L 330 116 L 332 118 L 344 123 L 349 127 L 350 126 L 357 133 L 355 134 L 348 129 L 347 130 L 352 133 L 353 132 L 356 136 L 359 136 L 358 133 L 353 128 L 352 129 L 350 126 L 349 127 L 344 122 L 334 117 L 332 118 L 331 116 L 326 114 L 324 115 L 323 113 Z M 356 134 L 357 133 L 358 134 L 357 135 Z M 270 112 L 268 117 L 269 114 L 271 113 L 278 121 L 280 126 L 280 133 L 279 134 L 281 132 L 279 123 L 275 116 Z M 282 112 L 281 113 L 283 114 L 282 115 L 286 122 L 287 128 L 288 127 L 289 128 L 287 126 L 287 122 L 283 114 L 286 112 L 291 112 L 290 111 Z M 294 110 L 295 111 L 306 111 L 316 113 L 319 112 L 316 113 L 314 111 L 310 112 L 309 111 L 308 112 L 307 110 Z M 252 97 L 244 106 L 241 107 L 241 113 L 244 120 L 245 120 L 241 113 L 241 109 L 247 104 Z M 254 91 L 253 95 L 256 92 L 262 99 L 263 103 L 261 97 Z M 238 77 L 230 85 L 230 90 L 232 95 L 239 101 L 243 99 L 247 93 L 244 98 L 241 100 L 238 100 L 234 97 L 230 90 L 230 85 Z M 240 73 L 239 75 L 241 73 L 247 81 L 245 77 Z M 225 56 L 224 57 L 229 58 L 234 65 L 234 72 L 229 78 L 225 76 L 225 73 L 223 71 L 223 64 L 223 71 L 227 78 L 229 78 L 233 74 L 234 65 L 232 61 Z " fill="#ffffff" stroke="none"/>
<path d="M 546 342 L 528 358 L 520 371 L 541 356 L 572 352 L 592 358 L 610 372 L 620 388 L 624 408 L 620 434 L 606 476 L 610 502 L 620 516 L 635 525 L 656 527 L 668 522 L 677 512 L 665 516 L 648 514 L 633 503 L 627 489 L 631 455 L 643 432 L 650 408 L 647 376 L 637 357 L 622 342 L 598 332 L 571 332 Z M 418 185 L 426 200 L 430 218 L 426 249 L 416 265 L 400 280 L 371 301 L 350 325 L 342 347 L 342 364 L 346 378 L 354 391 L 353 364 L 361 348 L 373 335 L 425 303 L 439 288 L 448 270 L 450 239 L 446 224 L 435 203 Z M 353 142 L 329 130 L 302 130 L 283 139 L 254 172 L 241 180 L 228 183 L 215 182 L 204 178 L 195 169 L 190 154 L 186 166 L 187 182 L 194 196 L 208 206 L 233 211 L 249 209 L 261 205 L 274 197 L 288 184 L 299 170 L 312 159 L 331 153 L 342 153 L 346 155 Z M 488 127 L 486 129 L 486 133 L 482 143 L 476 148 L 466 151 L 468 153 L 473 153 L 479 156 L 482 159 L 486 167 L 487 173 L 489 173 L 489 169 L 493 159 L 497 155 L 509 151 L 509 150 L 504 150 L 499 148 L 493 143 L 491 140 Z M 271 114 L 270 114 L 266 123 L 257 132 L 256 131 L 254 133 L 254 144 L 256 146 L 256 149 L 260 153 L 261 152 L 260 151 L 264 148 L 265 145 L 279 133 L 279 126 L 277 121 Z M 256 93 L 254 94 L 252 99 L 248 104 L 242 109 L 243 116 L 246 120 L 245 121 L 250 125 L 258 121 L 263 111 L 262 101 Z M 241 74 L 238 79 L 231 85 L 232 93 L 238 99 L 241 99 L 244 97 L 247 92 L 247 82 Z M 224 58 L 223 62 L 224 71 L 226 73 L 226 76 L 229 77 L 233 72 L 233 65 L 229 59 Z " fill="#fccf5e" stroke="none"/>
<path d="M 465 408 L 465 411 L 467 413 L 468 412 L 469 414 L 477 420 L 477 427 L 476 428 L 476 435 L 477 436 L 480 436 L 490 428 L 493 428 L 501 432 L 507 433 L 507 429 L 503 417 L 508 412 L 507 410 L 508 409 L 509 410 L 513 406 L 512 403 L 496 402 L 490 391 L 487 389 L 485 391 L 484 396 L 482 399 L 483 402 L 482 403 L 481 402 L 480 405 L 475 405 Z M 500 431 L 501 430 L 502 431 L 501 432 Z M 539 325 L 521 346 L 517 361 L 524 349 L 547 331 L 576 322 L 612 326 L 646 353 L 657 376 L 660 402 L 655 427 L 636 468 L 635 486 L 645 503 L 660 508 L 677 503 L 683 490 L 676 495 L 660 495 L 644 474 L 648 452 L 667 422 L 674 397 L 671 366 L 655 336 L 638 321 L 597 307 L 567 310 Z M 664 495 L 665 494 L 670 495 L 669 496 Z M 518 357 L 519 356 L 520 357 L 519 358 Z M 521 353 L 522 352 L 523 353 L 522 354 Z M 629 338 L 630 337 L 631 338 L 630 339 Z M 528 336 L 529 335 L 530 336 L 529 337 Z M 157 303 L 156 307 L 157 312 L 156 313 L 155 311 L 152 320 L 144 325 L 143 327 L 141 326 L 137 328 L 136 330 L 135 329 L 148 333 L 149 332 L 153 336 L 153 338 L 155 339 L 154 340 L 156 343 L 158 351 L 160 347 L 161 340 L 164 335 L 169 332 L 180 329 L 180 328 L 175 327 L 164 322 L 160 313 L 158 303 Z M 162 336 L 163 335 L 164 336 L 163 337 Z M 171 326 L 172 325 L 173 326 L 172 327 Z M 324 266 L 322 272 L 323 277 L 325 280 L 336 284 L 344 283 L 352 279 L 356 275 L 358 269 L 356 263 L 348 258 L 343 258 L 342 259 L 341 258 L 336 258 L 331 260 Z M 356 269 L 357 268 L 358 269 L 357 270 Z M 556 234 L 552 249 L 542 255 L 537 256 L 537 257 L 544 258 L 550 261 L 553 264 L 552 265 L 553 268 L 554 267 L 555 268 L 554 271 L 555 275 L 557 277 L 557 273 L 560 264 L 567 258 L 568 259 L 570 258 L 569 257 L 570 256 L 574 257 L 574 255 L 571 255 L 565 252 L 564 253 L 561 250 L 558 244 Z M 555 236 L 556 235 L 557 236 L 556 237 Z M 434 186 L 431 186 L 441 196 L 455 221 L 460 241 L 458 270 L 448 291 L 434 307 L 412 323 L 387 335 L 368 353 L 362 365 L 361 385 L 372 402 L 372 384 L 382 366 L 407 346 L 437 335 L 459 321 L 475 302 L 482 283 L 483 257 L 475 231 L 461 210 Z M 383 365 L 384 364 L 385 365 L 384 366 Z M 370 350 L 371 349 L 372 350 L 371 351 Z M 379 341 L 380 340 L 381 341 L 380 342 Z M 477 240 L 478 239 L 479 240 L 478 241 Z M 253 158 L 252 157 L 251 158 L 248 155 L 246 149 L 247 147 L 246 148 L 245 147 L 242 151 L 241 150 L 242 151 L 239 154 L 238 153 L 239 154 L 236 157 L 233 158 L 231 157 L 232 158 L 231 159 L 223 159 L 222 157 L 220 158 L 216 155 L 217 154 L 216 155 L 214 154 L 215 156 L 214 161 L 215 160 L 216 161 L 215 164 L 216 163 L 217 164 L 216 166 L 218 167 L 217 168 L 218 167 L 220 170 L 226 173 L 225 174 L 232 172 L 237 173 L 236 172 L 237 171 L 239 171 L 241 169 L 243 170 L 242 169 L 244 167 L 246 168 Z M 251 158 L 252 157 L 253 158 L 252 159 Z M 398 140 L 397 141 L 394 140 L 393 143 L 390 143 L 388 145 L 386 144 L 385 145 L 386 146 L 381 150 L 375 159 L 374 158 L 375 161 L 373 163 L 372 162 L 373 165 L 372 166 L 371 165 L 372 168 L 371 169 L 370 168 L 371 173 L 375 174 L 373 173 L 382 170 L 387 166 L 388 167 L 387 166 L 389 164 L 390 165 L 389 163 L 392 160 L 393 161 L 392 159 L 394 154 L 396 152 L 397 153 L 396 152 L 396 150 L 398 149 L 397 145 L 398 144 L 399 145 Z M 385 145 L 386 144 L 387 145 L 386 146 Z M 284 114 L 288 122 L 288 126 L 290 127 L 291 125 L 292 126 L 291 125 L 292 124 L 295 125 L 294 124 L 297 122 L 302 123 L 303 121 L 306 122 L 307 120 L 326 120 L 329 123 L 335 122 L 337 124 L 340 124 L 345 127 L 344 128 L 345 127 L 346 129 L 348 128 L 354 132 L 353 133 L 354 132 L 357 134 L 356 133 L 357 132 L 356 133 L 351 129 L 352 128 L 351 129 L 349 126 L 348 127 L 345 125 L 346 124 L 345 125 L 336 120 L 334 120 L 331 118 L 332 117 L 331 118 L 326 116 L 325 117 L 323 115 L 324 114 L 321 115 L 320 113 L 316 114 L 315 113 L 316 112 L 315 113 L 307 113 L 306 112 L 295 112 L 294 111 L 291 111 L 292 112 L 291 113 Z M 348 127 L 349 126 L 350 127 L 349 128 Z " fill="#fb799a" stroke="none"/>
<path d="M 536 369 L 526 377 L 527 380 L 542 375 L 560 376 L 579 387 L 588 399 L 592 418 L 590 432 L 579 466 L 580 493 L 585 505 L 596 518 L 609 526 L 627 530 L 620 527 L 607 514 L 598 492 L 598 467 L 614 422 L 614 400 L 607 383 L 592 368 L 577 362 L 553 362 Z M 606 524 L 607 523 L 609 524 L 608 525 Z M 602 522 L 603 521 L 604 522 L 603 523 Z M 585 505 L 586 504 L 587 505 L 586 506 Z M 582 498 L 583 497 L 584 498 L 583 499 Z M 579 467 L 580 466 L 581 468 L 580 469 Z M 580 466 L 581 465 L 582 466 L 581 467 Z M 580 463 L 581 462 L 582 463 L 581 464 Z M 599 459 L 600 458 L 601 459 L 600 460 Z M 607 429 L 608 428 L 610 430 L 608 431 Z M 582 391 L 583 390 L 584 391 L 583 392 Z M 608 389 L 609 388 L 610 389 L 609 390 Z M 582 389 L 583 388 L 584 389 L 583 390 Z M 600 377 L 601 376 L 602 377 L 601 378 Z M 535 375 L 536 374 L 537 375 L 536 376 Z M 199 359 L 198 364 L 196 366 L 197 367 L 195 369 L 195 372 L 189 376 L 188 375 L 187 377 L 184 376 L 182 377 L 184 379 L 185 378 L 189 379 L 195 383 L 195 385 L 199 391 L 198 394 L 199 394 L 200 389 L 205 381 L 210 378 L 213 379 L 215 377 L 216 378 L 215 376 L 212 377 L 210 375 L 208 375 L 202 370 L 201 368 L 202 367 L 200 366 L 201 363 L 199 362 Z M 200 373 L 201 372 L 202 373 L 201 374 Z M 492 277 L 486 300 L 472 321 L 458 333 L 445 341 L 406 358 L 395 366 L 383 382 L 381 390 L 381 397 L 386 407 L 399 413 L 415 412 L 407 405 L 404 399 L 404 392 L 410 380 L 423 369 L 465 352 L 482 338 L 490 323 L 494 307 L 494 287 Z M 385 381 L 386 379 L 388 380 L 386 382 Z M 389 373 L 390 372 L 391 373 L 390 374 Z M 390 372 L 391 371 L 392 372 L 391 373 Z M 402 361 L 403 360 L 404 361 L 403 362 Z M 474 344 L 475 343 L 476 344 L 475 345 Z M 475 343 L 476 342 L 477 343 L 476 344 Z M 479 338 L 480 337 L 481 338 L 480 339 Z M 481 336 L 482 335 L 483 336 L 482 337 Z M 458 333 L 459 332 L 460 333 L 459 334 Z M 460 332 L 461 331 L 462 332 L 461 333 Z M 461 331 L 462 330 L 463 331 L 462 332 Z M 523 189 L 523 196 L 520 199 L 520 202 L 516 206 L 506 209 L 508 211 L 510 210 L 514 211 L 520 216 L 523 221 L 522 224 L 524 226 L 524 229 L 525 229 L 524 226 L 527 221 L 526 220 L 531 213 L 538 210 L 540 211 L 542 209 L 538 209 L 533 207 L 527 201 L 524 193 L 525 189 Z M 407 186 L 405 186 L 399 191 L 399 194 L 403 203 L 407 219 L 407 245 L 401 267 L 410 258 L 414 252 L 414 250 L 417 246 L 421 232 L 421 219 L 418 205 L 413 194 Z M 406 260 L 407 259 L 408 260 L 407 261 Z M 413 199 L 414 198 L 415 199 L 414 200 Z " fill="#64c4e9" stroke="none"/>
<path d="M 466 596 L 469 598 L 476 598 L 486 601 L 507 600 L 512 598 L 515 599 L 518 597 L 518 595 L 521 591 L 521 586 L 523 583 L 501 585 L 500 584 L 486 583 L 477 579 L 473 579 L 471 582 L 471 585 L 469 586 L 469 589 L 467 591 Z M 268 591 L 271 594 L 275 594 L 278 596 L 283 596 L 284 597 L 291 596 L 293 598 L 303 598 L 305 596 L 314 596 L 319 592 L 319 590 L 322 586 L 322 583 L 324 582 L 302 582 L 301 581 L 293 582 L 289 579 L 288 580 L 283 578 L 284 577 L 282 577 L 280 579 L 277 575 L 276 579 L 273 583 L 273 588 L 272 589 L 270 587 Z M 295 596 L 296 595 L 298 596 L 297 597 Z M 289 595 L 290 594 L 292 595 L 291 596 Z M 270 591 L 271 590 L 275 592 L 272 594 Z M 269 590 L 270 588 L 272 589 L 270 591 Z M 276 585 L 277 584 L 278 585 L 277 586 Z M 320 584 L 321 583 L 322 584 L 321 585 Z M 296 582 L 297 581 L 300 582 L 299 583 Z M 288 580 L 289 579 L 290 580 L 289 581 Z M 276 581 L 279 579 L 283 584 L 278 585 L 276 583 L 277 582 Z M 281 578 L 282 577 L 283 578 L 282 579 Z M 397 575 L 405 580 L 409 580 L 414 582 L 427 582 L 436 578 L 441 567 L 422 567 L 418 565 L 411 564 L 408 561 L 409 562 L 406 564 L 403 563 L 403 565 L 399 569 Z M 413 568 L 414 567 L 415 568 L 414 569 Z M 419 567 L 420 566 L 422 567 L 421 568 Z M 406 564 L 407 563 L 416 566 L 411 568 L 407 567 Z M 274 484 L 269 481 L 268 479 L 265 480 L 262 479 L 260 482 L 257 483 L 253 487 L 251 487 L 246 491 L 243 491 L 240 494 L 237 494 L 239 494 L 240 495 L 239 496 L 234 495 L 231 497 L 229 496 L 228 497 L 241 512 L 248 512 L 249 510 L 254 508 L 257 504 L 260 504 L 265 500 L 268 495 L 269 496 L 274 488 Z M 236 507 L 237 506 L 238 507 L 237 508 Z M 235 506 L 236 505 L 237 506 L 236 507 Z M 239 496 L 240 495 L 241 496 L 240 497 Z M 240 495 L 241 494 L 242 495 L 241 496 Z M 261 480 L 262 479 L 263 480 L 262 481 Z " fill="#a67dcb" stroke="none"/>
<path d="" fill="#a19ea3" stroke="none"/>
<path d="M 226 264 L 220 264 L 216 268 L 215 274 L 217 276 L 222 276 L 225 274 L 227 271 L 227 265 Z M 352 231 L 343 229 L 341 227 L 340 218 L 336 218 L 335 219 L 335 231 L 333 235 L 326 242 L 319 245 L 308 245 L 303 243 L 297 238 L 294 233 L 292 226 L 289 226 L 288 229 L 289 235 L 292 241 L 298 247 L 308 251 L 323 250 L 335 243 L 340 247 L 344 247 L 345 245 L 344 243 L 338 238 L 341 234 L 351 235 Z M 403 134 L 398 134 L 391 136 L 377 145 L 371 153 L 365 169 L 365 178 L 366 179 L 375 179 L 382 177 L 390 172 L 395 167 L 399 161 L 403 150 L 403 144 L 404 143 L 404 135 Z M 399 137 L 401 139 L 400 149 L 394 162 L 389 168 L 382 173 L 374 176 L 369 176 L 368 175 L 369 166 L 377 151 L 388 141 Z M 219 53 L 246 133 L 227 152 L 214 140 L 208 169 L 196 144 L 181 153 L 183 194 L 224 219 L 189 252 L 184 284 L 223 323 L 286 323 L 261 404 L 217 418 L 202 445 L 213 491 L 241 522 L 282 493 L 267 462 L 302 475 L 261 597 L 320 603 L 367 496 L 404 499 L 422 520 L 393 584 L 439 587 L 476 515 L 491 528 L 458 601 L 524 604 L 549 518 L 533 486 L 538 389 L 563 410 L 550 474 L 566 511 L 624 538 L 674 527 L 692 486 L 653 475 L 681 396 L 662 333 L 627 307 L 581 300 L 536 318 L 505 364 L 476 357 L 498 323 L 499 275 L 470 209 L 417 168 L 421 115 L 364 130 L 322 106 L 276 108 Z M 463 593 L 468 582 L 473 575 L 493 581 L 517 581 L 523 579 L 525 580 L 524 591 L 522 597 L 519 600 L 511 603 L 481 604 L 471 602 L 466 600 L 463 597 Z M 266 592 L 266 589 L 269 583 L 277 571 L 292 577 L 304 578 L 305 579 L 324 579 L 325 578 L 327 580 L 327 582 L 320 595 L 315 599 L 310 600 L 302 600 L 301 601 L 282 600 L 274 598 L 268 595 Z M 394 575 L 396 569 L 406 557 L 419 563 L 443 564 L 445 566 L 439 578 L 432 584 L 425 584 L 424 585 L 409 584 L 400 581 Z M 450 491 L 454 497 L 468 511 L 467 521 L 451 554 L 448 558 L 440 560 L 424 559 L 412 555 L 409 552 L 422 534 L 428 521 L 426 514 L 415 503 L 414 500 L 419 498 L 431 497 Z M 266 473 L 277 484 L 277 489 L 275 493 L 266 503 L 257 510 L 247 515 L 241 515 L 236 511 L 224 496 L 226 494 L 238 491 L 249 486 L 259 479 L 264 473 Z M 260 412 L 262 415 L 262 419 L 266 433 L 278 455 L 277 456 L 252 457 L 251 459 L 253 461 L 257 462 L 261 467 L 260 470 L 253 477 L 244 483 L 229 489 L 221 490 L 213 476 L 209 461 L 208 446 L 210 437 L 214 430 L 220 424 L 228 419 L 247 413 Z M 542 382 L 555 382 L 568 387 L 579 398 L 584 409 L 584 427 L 572 467 L 573 493 L 576 502 L 584 515 L 583 517 L 579 515 L 566 502 L 560 492 L 556 478 L 557 453 L 568 419 L 567 404 L 563 396 L 558 391 L 549 386 L 542 385 Z M 537 366 L 558 359 L 578 360 L 595 368 L 610 384 L 616 400 L 617 415 L 615 427 L 601 465 L 600 492 L 611 516 L 618 523 L 631 530 L 632 533 L 617 531 L 601 524 L 584 507 L 577 489 L 576 471 L 589 427 L 588 405 L 580 391 L 565 380 L 542 377 L 526 382 L 523 378 Z M 548 339 L 578 329 L 602 331 L 627 344 L 643 363 L 651 384 L 652 408 L 647 427 L 631 462 L 629 489 L 635 502 L 646 511 L 666 514 L 680 509 L 668 524 L 655 529 L 633 526 L 613 510 L 607 499 L 605 469 L 622 413 L 620 395 L 611 376 L 594 361 L 574 354 L 548 356 L 534 362 L 520 374 L 517 372 L 526 358 Z M 549 316 L 578 306 L 609 307 L 642 322 L 662 343 L 674 371 L 675 402 L 666 428 L 650 455 L 647 471 L 650 483 L 660 492 L 671 493 L 686 487 L 685 496 L 678 504 L 667 509 L 649 507 L 639 499 L 634 488 L 636 462 L 655 417 L 657 390 L 647 360 L 629 339 L 601 326 L 568 326 L 539 339 L 511 368 L 524 339 Z M 491 269 L 493 271 L 496 287 L 496 309 L 487 334 L 469 352 L 432 367 L 413 379 L 407 389 L 406 399 L 410 406 L 420 411 L 419 413 L 413 415 L 398 415 L 388 411 L 382 405 L 379 397 L 380 385 L 385 375 L 396 363 L 406 356 L 450 336 L 463 327 L 476 313 L 485 297 Z M 407 184 L 414 192 L 419 202 L 423 218 L 423 232 L 420 244 L 415 254 L 410 261 L 398 272 L 397 270 L 402 258 L 405 242 L 405 221 L 404 220 L 403 210 L 396 192 L 405 184 Z M 412 178 L 428 192 L 445 217 L 452 240 L 450 269 L 441 288 L 425 305 L 380 332 L 362 350 L 354 373 L 358 393 L 356 395 L 347 384 L 340 364 L 340 347 L 344 333 L 355 315 L 371 299 L 409 270 L 421 254 L 428 232 L 427 211 L 420 192 L 410 179 Z M 422 177 L 446 193 L 474 226 L 484 253 L 484 282 L 476 303 L 460 322 L 446 332 L 402 352 L 385 366 L 375 384 L 376 405 L 374 406 L 365 398 L 359 384 L 359 370 L 365 355 L 383 336 L 428 309 L 447 288 L 456 265 L 457 240 L 453 224 L 444 205 L 420 178 Z M 246 142 L 248 144 L 248 148 L 255 159 L 255 161 L 247 169 L 239 174 L 233 176 L 226 176 L 220 173 L 214 166 L 213 152 L 215 151 L 222 156 L 231 156 L 238 152 Z M 355 142 L 347 157 L 329 155 L 310 162 L 278 196 L 270 202 L 249 211 L 222 212 L 206 207 L 192 196 L 185 181 L 184 167 L 186 157 L 190 151 L 192 152 L 195 166 L 202 174 L 214 180 L 228 181 L 238 179 L 251 172 L 282 138 L 299 129 L 308 127 L 328 128 L 348 136 Z M 395 119 L 414 117 L 418 126 L 414 160 L 385 192 L 398 214 L 398 250 L 383 283 L 342 324 L 336 373 L 355 402 L 396 420 L 430 413 L 436 403 L 417 404 L 414 387 L 461 362 L 494 366 L 521 385 L 537 423 L 528 491 L 543 511 L 522 575 L 476 569 L 496 522 L 460 494 L 447 463 L 446 486 L 409 494 L 365 490 L 361 468 L 332 570 L 283 568 L 305 500 L 309 444 L 303 437 L 301 467 L 272 431 L 267 388 L 296 321 L 322 310 L 238 321 L 272 290 L 246 311 L 219 314 L 190 283 L 194 256 L 232 218 L 273 207 L 323 162 L 350 165 L 363 141 Z M 270 111 L 278 119 L 281 126 L 282 132 L 259 155 L 253 147 L 252 132 L 254 130 L 258 129 L 264 123 L 267 118 L 268 113 Z M 280 113 L 282 111 L 293 110 L 294 109 L 307 109 L 323 112 L 344 121 L 353 127 L 360 134 L 360 136 L 356 137 L 350 132 L 342 128 L 324 123 L 307 123 L 287 129 L 283 117 Z M 255 90 L 262 97 L 264 101 L 265 108 L 264 109 L 264 114 L 259 122 L 250 127 L 242 119 L 240 113 L 240 107 L 244 105 L 252 96 L 253 91 Z M 241 72 L 248 80 L 249 91 L 246 97 L 243 100 L 238 102 L 231 95 L 229 90 L 229 85 L 236 79 L 238 74 Z M 225 55 L 229 57 L 235 65 L 235 72 L 229 79 L 227 79 L 224 76 L 222 71 L 222 59 Z " fill="#000000" stroke="none"/>
</g></svg>